HIERARCHY
ROOT hip
{
  OFFSET 0 0 0
  CHANNELS 6 Xposition Yposition Zposition Zrotation Yrotation Xrotation
  JOINT abdomen
  {
    OFFSET 0 20.6881 -0.73152
    CHANNELS 3 Zrotation Xrotation Yrotation
    JOINT chest
    {
      OFFSET 0 11.7043 -0.48768
      CHANNELS 3 Zrotation Xrotation Yrotation
      JOINT neck
      {
        OFFSET 0 22.1894 -2.19456
        CHANNELS 3 Zrotation Xrotation Yrotation
        JOINT head
        {
          OFFSET -0.24384 7.07133 1.2192
          CHANNELS 3 Zrotation Xrotation Yrotation
          JOINT leftEye
          {
            OFFSET 4.14528 8.04674 8.04672
            CHANNELS 3 Zrotation Xrotation Yrotation
            End Site
            {
              OFFSET 1 0 0
            }
          }
          JOINT rightEye
          {
            OFFSET -3.6576 8.04674 8.04672
            CHANNELS 3 Zrotation Xrotation Yrotation
            End Site
            {
              OFFSET 1 0 0
            }
          }
        }
      }
      JOINT rCollar
      {
        OFFSET -2.68224 19.2634 -4.8768
        CHANNELS 3 Zrotation Xrotation Yrotation
        JOINT rShldr
        {
          OFFSET -8.77824 -1.95073 1.46304
          CHANNELS 3 Zrotation Xrotation Yrotation
          JOINT rForeArm
          {
            OFFSET -28.1742 -1.7115 0.48768
            CHANNELS 3 Zrotation Xrotation Yrotation
            JOINT rHand
            {
              OFFSET -22.5879 0.773209 7.07136
              CHANNELS 3 Zrotation Xrotation Yrotation
              JOINT rThumb1
              {
                OFFSET -1.2192 -0.487915 3.41376
                CHANNELS 3 Zrotation Xrotation Yrotation
                JOINT rThumb2
                {
                  OFFSET -3.37035 -0.52449 3.41376
                  CHANNELS 3 Zrotation Xrotation Yrotation
                  End Site
                  {
                    OFFSET -1.78271 -1.18214 1.43049
                  }
                }
              }
              JOINT rIndex1
              {
                OFFSET -7.75947 0.938293 5.60832
                CHANNELS 3 Zrotation Xrotation Yrotation
                JOINT rIndex2
                {
                  OFFSET -2.54057 -0.884171 1.56538
                  CHANNELS 3 Zrotation Xrotation Yrotation
                  End Site
                  {
                    OFFSET -1.62519 -0.234802 1.16502
                  }
                }
              }
              JOINT rMid1
              {
                OFFSET -8.24714 1.18213 3.41376
                CHANNELS 3 Zrotation Xrotation Yrotation
                JOINT rMid2
                {
                  OFFSET -3.10165 -0.590103 1.0647
                  CHANNELS 3 Zrotation Xrotation Yrotation
                  End Site
                  {
                    OFFSET -2.48547 -0.328903 0.83742
                  }
                }
              }
              JOINT rRing1
              {
                OFFSET -8.82822 0.546677 1.51678
                CHANNELS 3 Zrotation Xrotation Yrotation
                JOINT rRing2
                {
                  OFFSET -2.60934 -0.819778 -0.0198488
                  CHANNELS 3 Zrotation Xrotation Yrotation
                  End Site
                  {
                    OFFSET -2.33842 -0.294052 0.168128
                  }
                }
              }
              JOINT rPinky1
              {
                OFFSET -8.27202 -0.0477905 -0.4584
                CHANNELS 3 Zrotation Xrotation Yrotation
                JOINT rPinky2
                {
                  OFFSET -1.82734 -0.647385 -0.700984
                  CHANNELS 3 Zrotation Xrotation Yrotation
                  End Site
                  {
                    OFFSET -1.69225 -0.51767 -0.607171
                  }
                }
              }
            }
          }
        }
      }
      JOINT lCollar
      {
        OFFSET 2.68224 19.2634 -4.8768
        CHANNELS 3 Zrotation Xrotation Yrotation
        JOINT lShldr
        {
          OFFSET 8.77824 -1.95073 1.46304
          CHANNELS 3 Zrotation Xrotation Yrotation
          JOINT lForeArm
          {
            OFFSET 28.1742 -1.7115 0.48768
            CHANNELS 3 Zrotation Xrotation Yrotation
            JOINT lHand
            {
              OFFSET 22.5879 0.773209 7.07136
              CHANNELS 3 Zrotation Xrotation Yrotation
              JOINT lThumb1
              {
                OFFSET 1.2192 -0.487915 3.41376
                CHANNELS 3 Zrotation Xrotation Yrotation
                JOINT lThumb2
                {
                  OFFSET 3.37035 -0.52449 3.41376
                  CHANNELS 3 Zrotation Xrotation Yrotation
                  End Site
                  {
                    OFFSET 1.78271 -1.18214 1.43049
                  }
                }
              }
              JOINT lIndex1
              {
                OFFSET 7.75947 0.938293 5.60832
                CHANNELS 3 Zrotation Xrotation Yrotation
                JOINT lIndex2
                {
                  OFFSET 2.54057 -0.884171 1.56538
                  CHANNELS 3 Zrotation Xrotation Yrotation
                  End Site
                  {
                    OFFSET 1.62519 -0.234802 1.16502
                  }
                }
              }
              JOINT lMid1
              {
                OFFSET 8.24714 1.18213 3.41376
                CHANNELS 3 Zrotation Xrotation Yrotation
                JOINT lMid2
                {
                  OFFSET 3.10165 -0.590103 1.0647
                  CHANNELS 3 Zrotation Xrotation Yrotation
                  End Site
                  {
                    OFFSET 2.48547 -0.328903 0.83742
                  }
                }
              }
              JOINT lRing1
              {
                OFFSET 8.82822 0.546677 1.51678
                CHANNELS 3 Zrotation Xrotation Yrotation
                JOINT lRing2
                {
                  OFFSET 2.60934 -0.819778 -0.0198488
                  CHANNELS 3 Zrotation Xrotation Yrotation
                  End Site
                  {
                    OFFSET 2.33842 -0.294052 0.168128
                  }
                }
              }
              JOINT lPinky1
              {
                OFFSET 8.27202 -0.0477905 -0.4584
                CHANNELS 3 Zrotation Xrotation Yrotation
                JOINT lPinky2
                {
                  OFFSET 1.82734 -0.647385 -0.700984
                  CHANNELS 3 Zrotation Xrotation Yrotation
                  End Site
                  {
                    OFFSET 1.69225 -0.51767 -0.607171
                  }
                }
              }
            }
          }
        }
      }
    }
  }
  JOINT rButtock
  {
    OFFSET -8.77824 4.35084 1.2192
    CHANNELS 3 Zrotation Xrotation Yrotation
    JOINT rThigh
    {
      OFFSET 0 -1.70687 -2.19456
      CHANNELS 3 Zrotation Xrotation Yrotation
      JOINT rShin
      {
        OFFSET 0 -36.8199 0.73152
        CHANNELS 3 Zrotation Xrotation Yrotation
        JOINT rFoot
        {
          OFFSET 0.73152 -45.1104 -5.12064
          CHANNELS 3 Zrotation Xrotation Yrotation
          End Site
          {
            OFFSET -1.1221 -3.69964 12.103
          }
        }
      }
    }
  }
  JOINT lButtock
  {
    OFFSET 8.77824 4.35084 1.2192
    CHANNELS 3 Zrotation Xrotation Yrotation
    JOINT lThigh
    {
      OFFSET 0 -1.70687 -2.19456
      CHANNELS 3 Zrotation Xrotation Yrotation
      JOINT lShin
      {
        OFFSET 0 -36.8199 0.73152
        CHANNELS 3 Zrotation Xrotation Yrotation
        JOINT lFoot
        {
          OFFSET -0.73152 -45.1104 -5.12064
          CHANNELS 3 Zrotation Xrotation Yrotation
          End Site
          {
            OFFSET 1.1221 -3.69964 12.103
          }
        }
      }
    }
  }
}
MOTION
Frames:	6
Frame Time:	0.00833333
-145.086 84.8928 2.25235 0.0 0.0 0.0 -0.180149 -0.000587413 -0.00513801 -0.0496824 -0.000860791 -0.00860672 -2.60737e-16 -1.59028e-15 4.74195e-25 -7.73397e-16 3.18055e-15 1.70831e-17 -0.0 0.0 0.0 -0.0 0.0 0.0 -5.10255e-17 -1.94126e-19 1.98785e-16 -8.24355e-16 6.21202e-18 5.96354e-16 -4.80065e-14 1.31198e-14 -2.8625e-14 -5.51615e-13 -1.97791e-14 2.8625e-14 -1.30376e-12 -1.85594e-14 2.22639e-14 -2.26694e-12 -2.8625e-14 3.33958e-14 -1.29965e-12 -1.59028e-14 9.54166e-15 7.73091 5.47488 0.417314 -1.30328e-12 -1.81888e-14 1.90833e-14 2.90554 0.965183 0.102902 -1.29516e-12 -1.82882e-14 2.14687e-14 10.2786 0.731801 0.0259123 -1.30562e-12 -1.66979e-14 3.18055e-14 2.22167 -0.733487 -0.20892 -1.47768e-16 1.94126e-19 -1.98785e-16 -4.74492e-15 -8.69683e-17 -5.96354e-16 -4.86525e-14 -1.5704e-14 2.8625e-14 -5.5451e-13 1.15792e-14 -6.36111e-15 -1.30626e-12 -9.65465e-15 2.22639e-14 -2.24746e-12 -1.90833e-14 3.81667e-14 -1.31198e-12 -9.1441e-15 3.18055e-14 -7.73091 5.47488 -0.417314 -1.30636e-12 -9.83984e-15 1.59028e-14 -2.90554 0.965183 -0.102902 -1.31182e-12 -9.54166e-15 2.06736e-14 -10.2786 0.731801 -0.0259123 -1.30164e-12 -8.74653e-15 9.54166e-15 -2.22167 -0.733487 0.20892 -2.03217e-16 0.0 -3.88251e-19 0.373572 -2.84391 -0.034714 -0.00664986 -0.401536 -0.0584297 -0.509723 3.24465 0.124536 2.03217e-16 0.0 3.88251e-19 -0.647767 -3.54407 0.0518672 0.00461054 0.866745 0.0396093 0.511835 2.67656 -0.113178
-143.545 82.9587 -3.03459 -30.9044 87.1736 -18.5307 -1.27167 -5.41607 0.210465 0.793125 0.677214 0.137286 -1.88462 4.90969 0.0360001 7.85568 -4.23047 1.44659 -0.0 0.0 0.0 -0.0 0.0 0.0 -6.27676e-15 -1.4209e-12 -2.43038e-14 23.924 3.10924 0.00734728 -2.21212 -0.787799 3.65517 0.123629 7.81323 1.06156 8.92678e-10 2.00873e-10 -2.76083e-10 1.53394e-09 3.49595e-10 -4.95663e-10 8.92681e-10 2.00875e-10 -2.76093e-10 7.73091 5.47488 0.417314 8.92677e-10 2.00871e-10 -2.76083e-10 2.90554 0.965183 0.102902 8.92686e-10 2.00873e-10 -2.76082e-10 10.2786 0.731801 0.0259123 8.92674e-10 2.00875e-10 -2.76072e-10 2.22167 -0.733487 -0.20892 -6.39463e-15 -1.4209e-12 -2.46458e-14 -23.5563 -5.07648 0.600486 1.25411 -0.385043 -2.11325 -0.686487 18.5669 -2.14078 -8.71813e-10 1.62934e-10 1.15838e-10 -1.48699e-09 2.8474e-10 2.43407e-10 -8.71818e-10 1.62935e-10 1.15848e-10 -7.73091 5.47488 -0.417314 -8.71811e-10 1.62934e-10 1.15831e-10 -2.90554 0.965183 -0.102902 -8.71818e-10 1.62935e-10 1.15837e-10 -10.2786 0.731801 -0.0259123 -8.7181e-10 1.62935e-10 1.15827e-10 -2.22167 -0.733487 0.20892 -2.03217e-16 0.0 -3.88251e-19 0.300248 -8.52019 0.735596 0.00601129 6.44664 0.0630173 -0.778984 -0.155753 -3.05027 2.03217e-16 0.0 3.88251e-19 -0.364482 -9.45516 -2.02789 -0.0145304 8.33372 -0.102221 0.664928 -4.05239 1.1522
-143.503 82.9676 -3.04043 -32.0473 87.2802 -19.8661 -2.37947 -11.1422 0.445133 1.66603 1.39575 0.291871 -3.87492 10.1004 0.0748919 16.3801 -8.69695 3.00058 -0.0 0.0 0.0 -0.0 0.0 0.0 -1.34285e-14 -3.05498e-12 -5.21375e-14 49.2277 6.39294 0.0157776 -4.44121 -1.60975 7.52079 -0.0721335 16.0705 2.25238 1.9445e-09 4.39446e-10 -6.12021e-10 3.34123e-09 7.64757e-10 -1.09808e-09 1.9445e-09 4.39447e-10 -6.12029e-10 7.73091 5.47488 0.417314 1.9445e-09 4.39442e-10 -6.12018e-10 2.90554 0.965183 0.102902 1.94451e-09 4.39446e-10 -6.12019e-10 10.2786 0.731801 0.0259123 1.9445e-09 4.39448e-10 -6.12009e-10 2.22167 -0.733487 -0.20892 -1.35698e-14 -3.05498e-12 -5.24201e-14 -48.3298 -10.4488 1.24545 2.54569 -0.789063 -4.34192 0.466184 38.111 -5.30931 -1.90317e-09 3.55493e-10 2.48046e-10 -3.24643e-09 6.21361e-10 5.23238e-10 -1.90317e-09 3.55495e-10 2.48056e-10 -7.73091 5.47488 -0.417314 -1.90316e-09 3.55494e-10 2.48038e-10 -2.90554 0.965183 -0.102902 -1.90317e-09 3.55495e-10 2.48045e-10 -10.2786 0.731801 -0.0259123 -1.90317e-09 3.55495e-10 2.48036e-10 -2.22167 -0.733487 0.20892 -2.03217e-16 0.0 -3.88251e-19 0.391346 -14.5191 1.58257 -0.0128913 13.6884 0.196206 -1.47332 -3.72917 -6.41968 2.03217e-16 0.0 3.88251e-19 -0.550924 -15.6736 -4.33435 0.00684686 16.2254 -0.260292 1.15553 -11.1557 2.53372
-143.479 82.9685 -3.04576 -32.6324 87.345 -20.4776 -3.32814 -16.2461 0.665425 2.46837 2.03331 0.429313 -5.6729 14.729 0.11126 24.2208 -12.6586 4.43598 -0.0 0.0 0.0 -0.0 0.0 0.0 -1.87282e-14 -4.2627e-12 -7.33088e-14 71.7697 9.32772 0.0223043 -6.33664 -2.32496 10.9736 -0.563373 23.406 3.43835 2.68064e-09 6.02656e-10 -8.28294e-10 4.60636e-09 1.04884e-09 -1.48706e-09 2.68064e-09 6.02657e-10 -8.28299e-10 7.73091 5.47488 0.417314 2.68064e-09 6.0265e-10 -8.28287e-10 2.90554 0.965183 0.102902 2.68065e-09 6.02656e-10 -8.2829e-10 10.2786 0.731801 0.0259123 2.68063e-09 6.02658e-10 -8.28279e-10 2.22167 -0.733487 -0.20892 -1.88884e-14 -4.2627e-12 -7.35398e-14 -70.3398 -15.2226 1.85966 3.6773 -1.14885 -6.34087 4.74383 55.2654 -10.7273 -2.61283e-09 4.8882e-10 3.47471e-10 -4.45648e-09 8.54259e-10 7.30145e-10 -2.61283e-09 4.88824e-10 3.47481e-10 -7.73091 5.47488 -0.417314 -2.61282e-09 4.88823e-10 3.47462e-10 -2.90554 0.965183 -0.102902 -2.61283e-09 4.88823e-10 3.4747e-10 -10.2786 0.731801 -0.0259123 -2.61283e-09 4.88824e-10 3.47461e-10 -2.22167 -0.733487 0.20892 -2.03217e-16 0.0 -3.88251e-19 0.636933 -19.8588 2.39423 -0.0600268 20.1427 0.324564 -2.44841 -6.86338 -9.46792 2.03217e-16 0.0 3.88251e-19 -1.16525 -21.1682 -6.54811 0.0660735 23.2671 -0.41651 1.89575 -17.4756 3.8521
-143.441 82.9733 -3.05918 -31.6301 87.388 -19.5866 -3.97019 -19.7956 0.827075 3.10171 2.46848 0.523657 -6.97651 17.9525 0.13823 29.8864 -15.3894 5.48322 -0.0 0.0 0.0 -0.0 0.0 0.0 -1.93979e-14 -4.40452e-12 -7.78242e-14 87.4097 11.3902 0.0237749 -7.60841 -2.80985 13.3867 -1.1093 28.4695 4.37079 2.62757e-09 5.77458e-10 -7.45401e-10 4.51611e-09 1.00523e-09 -1.34244e-09 2.62757e-09 5.77459e-10 -7.45404e-10 7.73091 5.47488 0.417314 2.62756e-09 5.77452e-10 -7.45392e-10 2.90554 0.965183 0.102902 2.62757e-09 5.77459e-10 -7.45396e-10 10.2786 0.731801 0.0259123 2.62756e-09 5.7746e-10 -7.45385e-10 2.22167 -0.733487 -0.20892 -1.95652e-14 -4.40452e-12 -7.8023e-14 -85.6724 -18.5062 2.34249 4.46814 -1.40389 -7.76446 12.625 66.728 -19.0729 -2.51824e-09 4.74071e-10 3.64937e-10 -4.29308e-09 8.27851e-10 7.54738e-10 -2.51824e-09 4.74075e-10 3.64946e-10 -7.73091 5.47488 -0.417314 -2.51823e-09 4.74074e-10 3.64927e-10 -2.90554 0.965183 -0.102902 -2.51824e-09 4.74074e-10 3.64935e-10 -10.2786 0.731801 -0.0259123 -2.51824e-09 4.74075e-10 3.64927e-10 -2.22167 -0.733487 0.20892 -2.03217e-16 0.0 -3.88251e-19 0.920042 -23.5632 3.0108 -0.11171 24.6289 0.422382 -3.3264 -8.99625 -11.6321 2.03217e-16 0.0 3.88251e-19 -1.85427 -24.9546 -8.20435 0.133498 28.1844 -0.539087 2.59395 -21.8717 4.84083
-143.445 82.9694 -3.03344 -31.0296 87.1845 -18.9086 -4.2348 -21.1645 0.890117 3.55124 2.61134 0.557268 -7.59981 19.21 0.147778 32.2811 -16.4168 5.91273 -0.0 0.0 0.0 -0.0 0.0 0.0 -1.24148e-14 -2.82881e-12 -5.70283e-14 93.3424 12.2447 0.0144556 -8.09967 -2.99815 14.3408 -1.36609 30.3558 4.75121 9.92483e-10 1.56913e-10 2.91884e-11 1.71075e-09 2.7448e-10 3.07914e-11 9.92484e-10 1.56913e-10 2.91862e-11 7.73091 5.47488 0.417314 9.92476e-10 1.56907e-10 2.92013e-11 2.90554 0.965183 0.102902 9.92489e-10 1.56914e-10 2.91944e-11 10.2786 0.731801 0.0259123 9.92474e-10 1.56916e-10 2.92064e-11 2.22167 -0.733487 -0.20892 -1.25668e-14 -2.82911e-12 -5.72244e-14 -91.8065 -19.701 2.61546 4.81509 -1.51919 -8.39431 18.3111 70.8395 -24.8615 -7.60001e-10 1.61205e-10 2.66647e-10 -1.28543e-09 2.78436e-10 4.94399e-10 -7.60004e-10 1.61209e-10 2.66655e-10 -7.73091 5.47488 -0.417314 -7.59994e-10 1.61207e-10 2.66638e-10 -2.90554 0.965183 -0.102902 -7.60004e-10 1.61207e-10 2.66645e-10 -10.2786 0.731801 -0.0259123 -7.59999e-10 1.61208e-10 2.66638e-10 -2.22167 -0.733487 0.20892 -2.03217e-16 0.0 -3.88251e-19 1.08691 -24.9874 3.27707 -0.136292 26.3543 0.462295 -3.71032 -9.78975 -12.4979 2.03217e-16 0.0 3.88251e-19 -2.14598 -26.4288 -8.83831 0.167 30.1331 -0.591267 2.89616 -23.6029 5.21484
